<?xml version="1.0" encoding="UTF-8" standalone="no"?>
<svg
   id="Layer_1"
   data-name="Layer 1"
   viewBox="0 0 122.88076 121.08775"
   version="1.1"
   sodipodi:docname="77b1e3df226967d7260c3b282f8bbccc.svg"
   width="122.88076"
   height="121.08775"
   xmlns:inkscape="http://www.inkscape.org/namespaces/inkscape"
   xmlns:sodipodi="http://sodipodi.sourceforge.net/DTD/sodipodi-0.dtd"
   xmlns="http://www.w3.org/2000/svg"
   xmlns:svg="http://www.w3.org/2000/svg">
  <sodipodi:namedview
     id="namedview11"
     pagecolor="#081828"
     bordercolor="#eee"
     borderopacity="1.0"
     inkscape:pageshadow="2"
     inkscape:pageopacity="0.0"
     inkscape:pagecheckerboard="0" />
  <defs
     id="defs4">
    <style
       id="style2">.cls-1{fill-rule:evenodd;}</style>
  </defs>
  <title
     id="title6">add-member</title>
  <path
     class="cls-1"
     d="m 100.06076,75.447747 a 22.82,22.82 0 1 1 -22.820001,22.82 22.82,22.82 0 0 1 22.820001,-22.82 z M 72.670759,111.28775 H 7.5943492e-4 C -0.12924057,84.127747 16.450759,89.427747 34.370759,80.287747 c 4.63,-2.29 5.55,-3.13 7.88,-8.29 a 1.8,1.8 0 0 1 0.25,-0.4 c -3.25,-2.9 -5.8,-5.85 -6.34,-11.89 h -0.4 a 4.87,4.87 0 0 1 -2.32,-0.61 h -0.07 a 7.37,7.37 0 0 1 -3,-4.71 20.92,20.92 0 0 1 -0.37,-7.39 l 0.11,-0.38 a 4,4 0 0 1 2.43,-2.81 c -0.41,-7.74 0.89,-20 -7,-22.38 15.64,-19.43 33.74,-29.97 47.33,-12.71 15.65,0.82 22.47,25.3 10.58,36.2 a 4.72,4.72 0 0 1 2.52,0.49 3.69,3.69 0 0 1 1.81,2.2 6.83,6.83 0 0 1 -0.09,3.79 l -2,5.68 a 4.13,4.13 0 0 1 -1.25,2.06 3.75,3.75 0 0 1 -2.69,0.65 l -0.6,-0.07 c -0.09,5.28 -2.15,8.28 -5.21,11.35 l 0.11,0.24 a 12.79,12.79 0 0 0 3.06,5 l -0.49,0.48 c -0.65,0.65 -1.28,1.34 -1.87,2 a 19.71,19.71 0 0 1 -3.55,-5.17 c -4,3.84 -8.14,6.52 -13.91,6.5 -5.54,0 -10,-2.63 -14,-6.17 a 28.83,28.83 0 0 1 -5.07,7.38 c 6.17,9 21.12,11 31.51,6.12 a 30.41,30.41 0 0 0 1,23.740003 z m -1.92,-88.000003 c -5.47,5.51 -11.81,5.63 -17.46,6 a 21.17,21.17 0 0 0 -8.79,3.67 11.22,11.22 0 0 0 -4.41,5.48 13.9,13.9 0 0 0 -0.19,7.68 1.52,1.52 0 0 1 -0.06,0.84 1.49,1.49 0 0 1 -1.9,0.87 l -1.42,-0.51 c -1.82,-0.63 -3.11,-0.93 -3.62,0.25 a 18.09,18.09 0 0 0 0.31,6.13 4.73,4.73 0 0 0 1.65,2.88 v 0 a 1.75,1.75 0 0 0 0.9,0.23 4.2,4.2 0 0 0 1.3,-0.23 l 0.39,-0.06 a 1.48,1.48 0 0 1 1.55,1.48 c 0.17,6.88 3.21,9.55 6.9,12.74 l 1.65,1.42 c 3.78,3.37 7.81,5.13 11.74,5.15 3.93,0.02 7.63,-1.61 11.13,-5 l 1.24,-1.19 c 4.07,-3.87 7,-6.65 6.42,-13.48 a 1.54,1.54 0 0 1 0.24,-0.92 1.49,1.49 0 0 1 2,-0.44 3.67,3.67 0 0 0 1.48,0.58 h 0.73 l 2.23,-6.18 a 4,4 0 0 0 0.24,-2.18 0.75,0.75 0 0 0 -0.37,-0.47 1.87,1.87 0 0 0 -1,-0.14 5.48,5.48 0 0 0 -2.8,1.11 1.46,1.46 0 0 1 -1.14,0.28 1.5,1.5 0 0 1 -1.21,-1.71 c 1.44,-8.41 0.78,-13.9 -1,-17.65 a 14.93,14.93 0 0 0 -6.71,-6.7 z m 25.16,64.2 c 0,-1.22 -0.12,-2.1 1.4,-2.07 l 4.910001,0.06 c 1.59,0 2,0.49 2,2 v 6.7 h 6.66 c 1.22,0 2.09,-0.12 2.07,1.4 l -0.06,4.910003 c 0,1.59 -0.49,2 -2,2 h -6.69 v 6.69 c 0,1.49 -0.4,2 -2,2 l -4.910001,0.06 c -1.52,0 -1.4,-0.85 -1.4,-2.07 v -6.66 h -6.7 c -1.48,0 -2,-0.4 -2,-2 l -0.06,-4.910003 c 0,-1.52 0.85,-1.4 2.07,-1.4 h 6.66 v -6.74 z"
     id="path8"
     style="fill-rule: evenodd; fill: rgb(8, 24, 40);" />
</svg>
